HIERARCHY
ROOT Hips
{
    OFFSET 0.000000 0.000000 0.000000
    CHANNELS 6 Xposition Yposition Zposition Zrotation Xrotation Yrotation
    JOINT Spine
    {
        OFFSET -0.000000 14.517291 0.000000
        CHANNELS 3 Zrotation Xrotation Yrotation
        JOINT Spine1
        {
            OFFSET -0.000000 37.558300 0.000000
            CHANNELS 3 Zrotation Xrotation Yrotation
            JOINT Neck
            {
                OFFSET -0.000000 37.404057 3.400369
                CHANNELS 3 Zrotation Xrotation Yrotation
                JOINT Head
                {
                    OFFSET -0.000000 24.785618 -3.540803
                    CHANNELS 3 Zrotation Xrotation Yrotation
                    End Site
                    {
                        OFFSET -0.000000 35.408028 0.000000
                    }
                }
            }
            JOINT LeftShoulder
            {
                OFFSET 6.992933 33.973492 -0.192664
                CHANNELS 3 Zrotation Xrotation Yrotation
                JOINT LeftArm
                {
                    OFFSET 21.527611 0.000000 0.000000
                    CHANNELS 3 Zrotation Xrotation Yrotation
                    JOINT LeftForeArm
                    {
                        OFFSET 56.353916 0.000000 0.000000
                        CHANNELS 3 Zrotation Xrotation Yrotation
                        JOINT LeftHand
                        {
                            OFFSET 47.774071 0.000000 0.000000
                            CHANNELS 3 Zrotation Xrotation Yrotation
                            End Site
                            {
                                OFFSET 26.556021 0.000000 0.000000
                            }
                        }
                    }
                }
            }
            JOINT RightShoulder
            {
                OFFSET -7.065357 33.973492 -0.192664
                CHANNELS 3 Zrotation Xrotation Yrotation
                JOINT RightArm
                {
                    OFFSET -21.527611 0.000000 0.000000
                    CHANNELS 3 Zrotation Xrotation Yrotation
                    JOINT RightForeArm
                    {
                        OFFSET -56.353916 0.000000 0.000000
                        CHANNELS 3 Zrotation Xrotation Yrotation
                        JOINT RightHand
                        {
                            OFFSET -47.774071 0.000000 0.000000
                            CHANNELS 3 Zrotation Xrotation Yrotation
                            End Site
                            {
                                OFFSET -26.556021 0.000000 0.000000
                            }
                        }
                    }
                }
            }
        }
    }
    JOINT LeftUpLeg
    {
        OFFSET 17.704014 0.000000 0.000000
        CHANNELS 3 Zrotation Xrotation Yrotation
        JOINT LeftLeg
        {
            OFFSET -0.000000 -81.181816 0.000000
            CHANNELS 3 Zrotation Xrotation Yrotation
            JOINT LeftFoot
            {
                OFFSET -0.000000 -62.821102 0.000000
                CHANNELS 3 Zrotation Xrotation Yrotation
                JOINT LeftToeBase
                {
                    OFFSET -0.000000 -11.507608 26.556021
                    CHANNELS 3 Zrotation Xrotation Yrotation
                    End Site
                    {
                        OFFSET -0.000000 0.000000 7.081605
                    }
                }
            }
        }
    }
    JOINT RightUpLeg
    {
        OFFSET -17.704014 0.000000 0.000000
        CHANNELS 3 Zrotation Xrotation Yrotation
        JOINT RightLeg
        {
            OFFSET -0.000000 -81.181816 0.000000
            CHANNELS 3 Zrotation Xrotation Yrotation
            JOINT RightFoot
            {
                OFFSET -0.000000 -62.821102 0.000000
                CHANNELS 3 Zrotation Xrotation Yrotation
                JOINT RightToeBase
                {
                    OFFSET -0.000000 -11.507608 26.556021
                    CHANNELS 3 Zrotation Xrotation Yrotation
                    End Site
                    {
                        OFFSET -0.000000 0.000000 7.081605
                    }
                }
            }
        }
    }
}
MOTION
Frames:    6
Frame Time:    0.008333
-19.959835    163.179047    -75.413101    -8.769615    -26.663040    44.755665    3.037713    6.496368    -4.221975    4.312019    9.002967    -1.687879    18.118179    2.135717    -6.847458    8.151940    -3.822165    -8.074790    14.275489    3.680290    -24.185162    -18.673784    14.171298    -75.289429    -15.632076    -7.252145    -122.841522    -9.968213    -32.952660    -20.937246    13.044456    8.142630    -8.906401    31.816345    16.647991    16.633982    -12.767246    2.149987    36.616047    -22.745144    -0.168075    31.752686    29.316179    0.897157    4.220695    -5.154518    40.858875    -17.724203    8.891665    -24.408388    35.249016    0.000000    0.000000    0.000000    -82.361145    -42.443264    -47.927254    8.674949    15.941743    -9.107395    19.788986    9.511027    -34.576294    0.000000    0.000000    0.000000    
-19.968557    163.169388    -75.403397    -8.786737    -26.623850    44.731182    3.021195    6.472880    -4.238172    4.323582    9.005634    -1.694872    18.095221    2.150782    -6.823259    8.129468    -3.797286    -8.049675    14.282382    3.665966    -24.177156    -18.670305    14.140920    -75.319702    -15.689071    -7.117624    -122.814339    -9.971601    -32.916798    -20.971729    13.024757    8.157673    -8.897762    31.837955    16.663128    16.618603    -12.792171    2.143856    36.621124    -22.714867    -0.160471    31.772469    29.292711    0.869242    4.215587    -5.159649    40.863995    -17.701944    8.892585    -24.411186    35.259293    0.000000    0.000000    0.000000    -82.417259    -42.459656    -47.980038    8.677722    15.935673    -9.104891    19.821932    9.520094    -34.601700    0.000000    0.000000    0.000000    
-19.975836    163.158157    -75.402000    -8.806777    -26.570608    44.703144    3.005814    6.428933    -4.253669    4.321818    9.028626    -1.701391    18.085659    2.114183    -6.791472    8.085196    -3.719509    -8.034310    14.291933    3.638025    -24.164171    -18.654541    14.120071    -75.349419    -15.719791    -7.050724    -122.786591    -9.957355    -32.898045    -20.982603    13.009427    8.164235    -8.888886    31.860687    16.683352    16.607277    -12.828954    2.127017    36.613045    -22.708746    -0.173454    31.815166    29.260679    0.829955    4.207951    -5.182949    40.871998    -17.667959    8.910591    -24.413267    35.286186    0.000000    0.000000    0.000000    -82.484657    -42.480221    -48.045963    8.666060    15.921744    -9.129831    19.861641    9.541443    -34.611580    0.000000    0.000000    0.000000    
-19.980978    163.147919    -75.397530    -8.817195    -26.527956    44.676834    2.992359    6.413461    -4.259207    4.319943    9.023065    -1.703262    18.086668    2.099408    -6.765318    8.029352    -3.660494    -8.023314    14.315417    3.627690    -24.168205    -18.640362    14.107187    -75.376411    -15.724622    -7.031980    -122.761757    -9.951186    -32.877285    -20.993732    13.008433    8.159574    -8.892547    31.876469    16.685507    16.575413    -12.841246    2.130081    36.618904    -22.703909    -0.172229    31.852440    29.230518    0.807978    4.218972    -5.185052    40.871231    -17.660311    8.916786    -24.414547    35.308014    0.000000    0.000000    0.000000    -82.534973    -42.496738    -48.109684    8.653465    15.903176    -9.122890    19.872374    9.571018    -34.625301    0.000000    0.000000    0.000000    
-19.982491    163.135666    -75.391327    -8.822977    -26.480436    44.654793    2.969941    6.386057    -4.263471    4.321693    9.034434    -1.705911    18.085300    2.068259    -6.732760    7.982827    -3.595419    -8.006758    14.337994    3.622916    -24.168814    -18.651747    14.058901    -75.401634    -15.742417    -6.982112    -122.713318    -9.944202    -32.838463    -21.008829    13.006754    8.151122    -8.899624    31.895233    16.679163    16.551582    -12.852943    2.139711    36.612648    -22.694195    -0.166678    31.898798    29.192276    0.788233    4.244011    -5.176909    40.868893    -17.646336    8.919917    -24.416578    35.308796    0.000000    0.000000    0.000000    -82.595512    -42.512566    -48.177361    8.637320    15.892215    -9.128345    19.898399    9.591393    -34.624580    0.000000    0.000000    0.000000    
-19.980526    163.124771    -75.386871    -8.823577    -26.444256    44.635658    2.962034    6.377174    -4.272462    4.319506    9.033275    -1.708905    18.045841    2.040004    -6.717071    7.982536    -3.516823    -7.995116    14.345273    3.623718    -24.159664    -18.651281    14.010448    -75.425407    -15.754965    -6.940522    -122.666359    -9.929483    -32.800900    -21.017080    13.005294    8.146358    -8.911451    31.901840    16.668430    16.531933    -12.850634    2.155529    36.607227    -22.715553    -0.171212    31.956240    29.160130    0.778000    4.257905    -5.175098    40.868557    -17.634748    8.929406    -24.420126    35.313744    0.000000    0.000000    0.000000    -82.632988    -42.521458    -48.229252    8.611175    15.870830    -9.097500    19.933962    9.600209    -34.638721    0.000000    0.000000    0.000000    
